<svg width="20" height="20" viewBox="0 0 20 20" fill="none" xmlns="http://www.w3.org/2000/svg">
<g clip-path="url(#clip0_110_1548)">
<g clip-path="url(#clip1_110_1548)">
<path d="M14.167 18.332H5.83301C5.66765 18.3307 5.50944 18.2645 5.39251 18.1475C5.27558 18.0306 5.20932 17.8724 5.20801 17.707C5.20932 17.5417 5.27558 17.3835 5.39251 17.2665C5.50944 17.1496 5.66765 17.0833 5.83301 17.082H14.167C14.3324 17.0833 14.4906 17.1496 14.6075 17.2665C14.7244 17.3835 14.7907 17.5417 14.792 17.707C14.7907 17.8724 14.7244 18.0306 14.6075 18.1475C14.4906 18.2645 14.3324 18.3307 14.167 18.332Z" fill="url(#paint0_radial_110_1548)"/>
<path d="M16.9582 4.59922L13.6252 6.98222C13.521 7.05589 13.4013 7.10482 13.2753 7.12526C13.1493 7.14571 13.0203 7.13714 12.8981 7.10021C12.776 7.06327 12.6638 6.99895 12.5703 6.91213C12.4767 6.82532 12.4042 6.7183 12.3582 6.59922L10.7832 2.39922C10.5172 1.67422 9.4922 1.67422 9.2252 2.39922L7.6422 6.58922C7.59882 6.70939 7.52803 6.8178 7.43545 6.90584C7.34286 6.99387 7.23103 7.05912 7.10883 7.09639C6.98662 7.13366 6.85741 7.14194 6.73146 7.12056C6.6055 7.09918 6.48626 7.04873 6.3832 6.97322L3.0502 4.58922C2.3832 4.12322 1.5002 4.78122 1.7752 5.55622L5.2422 15.2642C5.3582 15.5982 5.6752 15.8142 6.0252 15.8142H13.9672C14.3172 15.8142 14.6332 15.5892 14.7502 15.2642L18.2172 5.55622C18.5002 4.78122 17.6172 4.12422 16.9582 4.59922ZM12.0832 12.2902H7.9172C7.75184 12.2889 7.59363 12.2226 7.4767 12.1057C7.35977 11.9888 7.2935 11.8306 7.2922 11.6652C7.2935 11.4999 7.35977 11.3417 7.4767 11.2247C7.59363 11.1078 7.75184 11.0415 7.9172 11.0402H12.0832C12.2486 11.0415 12.4068 11.1078 12.5237 11.2247C12.6406 11.3417 12.7069 11.4999 12.7082 11.6652C12.7069 11.8306 12.6406 11.9888 12.5237 12.1057C12.4068 12.2226 12.2486 12.2889 12.0832 12.2902Z" fill="url(#paint1_radial_110_1548)"/>
</g>
</g>
<defs>
<radialGradient id="paint0_radial_110_1548" cx="0" cy="0" r="1" gradientTransform="matrix(-8.23637 1.07423 -6.22048 -0.810518 13.8934 17.1797)" gradientUnits="userSpaceOnUse">
<stop stop-color="#86FFC6"/>
<stop offset="0.895" stop-color="#0A9150"/>
</radialGradient>
<radialGradient id="paint1_radial_110_1548" cx="0" cy="0" r="1" gradientTransform="matrix(-14.221 11.996 -10.7404 -9.05105 16.72 2.94579)" gradientUnits="userSpaceOnUse">
<stop stop-color="#86FFC6"/>
<stop offset="0.895" stop-color="#0A9150"/>
</radialGradient>
<clipPath id="clip0_110_1548">
<rect width="20" height="20" rx="3" fill="white"/>
</clipPath>
<clipPath id="clip1_110_1548">
<rect width="20" height="20" fill="white"/>
</clipPath>
</defs>
</svg>
