<svg width="20" height="20" viewBox="0 0 20 20" fill="none" xmlns="http://www.w3.org/2000/svg">
<path d="M5.55799 11.666H3.33299C2.41699 11.666 1.66699 12.416 1.66699 13.333V17.499C1.66699 17.958 2.04199 18.333 2.49999 18.333H5.55799C5.77902 18.3325 5.99084 18.2445 6.14714 18.0882C6.30343 17.9319 6.39146 17.72 6.39199 17.499V12.499C6.3912 12.2782 6.30305 12.0666 6.14678 11.9105C5.99052 11.7544 5.77885 11.6665 5.55799 11.666Z" fill="url(#paint0_radial_110_1562)"/>
<path d="M11.1078 8.33203H8.8828C7.9668 8.33203 7.2168 9.08203 7.2168 9.99903V17.499C7.2168 17.957 7.5918 18.332 8.0498 18.332H11.9418C12.1625 18.3312 12.3739 18.2432 12.5299 18.0872C12.686 17.9311 12.774 17.7197 12.7748 17.499V9.99903C12.7748 9.08203 12.0328 8.33203 11.1078 8.33203Z" fill="url(#paint1_radial_110_1562)"/>
<path d="M16.6674 14.166H14.4424C14.2215 14.1665 14.0099 14.2544 13.8536 14.4105C13.6973 14.5666 13.6092 14.7782 13.6084 14.999V17.499C13.6084 17.958 13.9834 18.333 14.4424 18.333H17.5004C17.7213 18.3322 17.9328 18.2441 18.0889 18.0878C18.245 17.9315 18.3329 17.7199 18.3334 17.499V15.833C18.3334 14.916 17.5834 14.166 16.6674 14.166Z" fill="url(#paint2_radial_110_1562)"/>
<path d="M12.5076 4.04042C12.7666 3.78242 12.8666 3.47442 12.7826 3.20742C12.6996 2.94042 12.4416 2.74942 12.0746 2.69042L11.2746 2.55742C11.2416 2.55742 11.1666 2.49942 11.1496 2.46542L10.7076 1.58242C10.3746 0.907422 9.61657 0.907422 9.28257 1.58242L8.84157 2.46542C8.83257 2.49942 8.75757 2.55742 8.72457 2.55742L7.92457 2.69042C7.55757 2.74942 7.30757 2.94042 7.21657 3.20742C7.13257 3.47442 7.23257 3.78242 7.49157 4.04042L8.10757 4.66542C8.14157 4.69042 8.16657 4.79042 8.15757 4.82442L7.98257 5.59042C7.84957 6.16542 8.06657 6.42442 8.20757 6.52442C8.34957 6.62442 8.65757 6.75742 9.16657 6.45742L9.91657 6.01542C9.94957 5.99042 10.0576 5.99042 10.0916 6.01542L10.8326 6.45742C11.0666 6.59942 11.2576 6.64042 11.4076 6.64042C11.5826 6.64042 11.7076 6.57442 11.7826 6.52442C11.9246 6.42442 12.1416 6.16542 12.0076 5.59042L11.8326 4.82442C11.8246 4.78242 11.8496 4.69042 11.8826 4.66542L12.5076 4.04042Z" fill="url(#paint3_radial_110_1562)"/>
<defs>
<radialGradient id="paint0_radial_110_1562" cx="0" cy="0" r="1" gradientTransform="matrix(-4.06061 5.72954 -3.06676 -4.32298 5.94898 12.1868)" gradientUnits="userSpaceOnUse">
<stop stop-color="#86FFC6"/>
<stop offset="0.895" stop-color="#0A9150"/>
</radialGradient>
<radialGradient id="paint1_radial_110_1562" cx="0" cy="0" r="1" gradientTransform="matrix(-4.77648 8.59387 -3.60741 -6.48414 12.2537 9.11314)" gradientUnits="userSpaceOnUse">
<stop stop-color="#86FFC6"/>
<stop offset="0.895" stop-color="#0A9150"/>
</radialGradient>
<radialGradient id="paint2_radial_110_1562" cx="0" cy="0" r="1" gradientTransform="matrix(-4.06061 3.58107 -3.06676 -2.70194 17.8904 14.4915)" gradientUnits="userSpaceOnUse">
<stop stop-color="#86FFC6"/>
<stop offset="0.895" stop-color="#0A9150"/>
</radialGradient>
<radialGradient id="paint3_radial_110_1562" cx="0" cy="0" r="1" gradientTransform="matrix(-4.83331 4.78313 -3.65034 -3.60891 12.2843 1.51091)" gradientUnits="userSpaceOnUse">
<stop stop-color="#86FFC6"/>
<stop offset="0.895" stop-color="#0A9150"/>
</radialGradient>
</defs>
</svg>
