<svg width="20" height="20" viewBox="0 0 20 20" fill="none" xmlns="http://www.w3.org/2000/svg">
<path d="M16.2497 6.24879L15.0088 7.4906L12.5088 4.9906L13.7506 3.74879C14.1006 3.39879 14.5506 3.23242 15.0006 3.23242C15.4506 3.23242 15.9006 3.39879 16.2506 3.74879C16.9415 4.4406 16.9406 5.55788 16.2497 6.24879Z" fill="url(#paint0_radial_110_1576)"/>
<path d="M14.4244 8.08203L5.4162 17.082C5.08468 17.4136 4.63505 17.5998 4.1662 17.5998C3.69736 17.5998 3.24773 17.4136 2.9162 17.082C2.58468 16.7505 2.39844 16.3009 2.39844 15.832C2.39844 15.3632 2.58468 14.9136 2.9162 14.582L11.9253 5.58203L14.4253 8.08203H14.4244Z" fill="url(#paint1_radial_110_1576)"/>
<path d="M8.29084 2.91637L8.63357 1.75819C8.64876 1.70454 8.6498 1.64787 8.63658 1.5937C8.62335 1.53953 8.59632 1.48971 8.55811 1.4491C8.51786 1.40789 8.46714 1.37841 8.41141 1.36384C8.35567 1.34926 8.29702 1.35014 8.24175 1.36637L7.08357 1.70819L5.92539 1.36637C5.87181 1.35106 5.81519 1.34987 5.76102 1.36294C5.70686 1.376 5.657 1.40286 5.61629 1.44092C5.57651 1.48051 5.54849 1.53036 5.53533 1.58492C5.52217 1.63949 5.52439 1.69663 5.54175 1.75001L5.87539 2.91637L5.53357 4.07455C5.49993 4.18364 5.53357 4.30001 5.60811 4.38364C5.69175 4.46637 5.80811 4.49092 5.9172 4.45819L7.08357 4.12455L8.24175 4.46637C8.27539 4.47546 8.29993 4.48273 8.33266 4.48273C8.4165 4.48151 8.49687 4.4491 8.55811 4.39182C8.59805 4.35232 8.62625 4.30252 8.63957 4.24795C8.65289 4.19339 8.65081 4.13619 8.63357 4.08273L8.29084 2.91637Z" fill="url(#paint2_radial_110_1576)"/>
<path d="M4.95776 7.91594L5.29958 6.75776C5.31478 6.70411 5.31582 6.64744 5.30259 6.59327C5.28937 6.5391 5.26234 6.48928 5.22413 6.44867C5.18461 6.40906 5.13492 6.38113 5.08054 6.36798C5.02616 6.35482 4.9692 6.35695 4.91595 6.37413L3.74958 6.70776L2.5914 6.36594C2.53783 6.35063 2.4812 6.34945 2.42704 6.36251C2.37287 6.37557 2.32301 6.40244 2.28231 6.44049C2.24253 6.48009 2.2145 6.52993 2.20135 6.5845C2.18819 6.63906 2.19041 6.6962 2.20776 6.74958L2.5414 7.91594L2.19958 9.07413C2.16595 9.18322 2.19958 9.29958 2.27413 9.38322C2.35776 9.46594 2.47413 9.4914 2.58322 9.45776L3.7414 9.11594L4.89958 9.45776C4.92932 9.46492 4.95995 9.46768 4.99049 9.46594C5.07433 9.46472 5.15471 9.43231 5.21595 9.37503C5.25588 9.33554 5.28408 9.28573 5.2974 9.23116C5.31072 9.1766 5.30864 9.1194 5.2914 9.06594L4.95776 7.91594Z" fill="url(#paint3_radial_110_1576)"/>
<path d="M17.4586 12.0821L17.8004 10.9239C17.8158 10.8703 17.8169 10.8137 17.8039 10.7595C17.7908 10.7054 17.7639 10.6555 17.7259 10.6148C17.6863 10.575 17.6365 10.547 17.5819 10.5339C17.5273 10.5207 17.4702 10.5229 17.4168 10.5403L16.2586 10.8821L15.1004 10.5403C15.0468 10.5251 14.9901 10.524 14.936 10.5373C14.8818 10.5505 14.832 10.5775 14.7914 10.6157C14.7517 10.6552 14.7238 10.7049 14.7107 10.7593C14.6975 10.8137 14.6996 10.8707 14.7168 10.9239L15.0586 12.0821L14.7168 13.2403C14.6841 13.3494 14.7168 13.4657 14.7923 13.5494C14.875 13.6321 14.9923 13.6575 15.1004 13.6239L16.2586 13.2821L17.4168 13.6239C17.4423 13.633 17.475 13.633 17.5086 13.633C17.5927 13.6313 17.6731 13.5982 17.7341 13.5403C17.7737 13.5008 17.8016 13.4511 17.8148 13.3967C17.8279 13.3423 17.8258 13.2853 17.8086 13.2321L17.4586 12.0821Z" fill="url(#paint4_radial_110_1576)"/>
<defs>
<radialGradient id="paint0_radial_110_1576" cx="0" cy="0" r="1" gradientTransform="matrix(-3.66099 3.65943 -2.76495 -2.76107 16.3694 3.56503)" gradientUnits="userSpaceOnUse">
<stop stop-color="#86FFC6"/>
<stop offset="0.895" stop-color="#0A9150"/>
</radialGradient>
<radialGradient id="paint1_radial_110_1576" cx="0" cy="0" r="1" gradientTransform="matrix(-10.3357 10.3279 -7.80602 -7.79249 13.2977 6.52074)" gradientUnits="userSpaceOnUse">
<stop stop-color="#86FFC6"/>
<stop offset="0.895" stop-color="#0A9150"/>
</radialGradient>
<radialGradient id="paint2_radial_110_1576" cx="0" cy="0" r="1" gradientTransform="matrix(-2.68793 2.68921 -2.03004 -2.02903 8.35498 1.59794)" gradientUnits="userSpaceOnUse">
<stop stop-color="#86FFC6"/>
<stop offset="0.895" stop-color="#0A9150"/>
</radialGradient>
<radialGradient id="paint3_radial_110_1576" cx="0" cy="0" r="1" gradientTransform="matrix(-2.68582 2.68013 -2.02846 -2.02218 5.01878 6.59711)" gradientUnits="userSpaceOnUse">
<stop stop-color="#86FFC6"/>
<stop offset="0.895" stop-color="#0A9150"/>
</radialGradient>
<radialGradient id="paint4_radial_110_1576" cx="0" cy="0" r="1" gradientTransform="matrix(-2.68227 2.67521 -2.02577 -2.01846 17.5307 10.7685)" gradientUnits="userSpaceOnUse">
<stop stop-color="#86FFC6"/>
<stop offset="0.895" stop-color="#0A9150"/>
</radialGradient>
</defs>
</svg>
