<svg width="20" height="20" viewBox="0 0 20 20" fill="none" xmlns="http://www.w3.org/2000/svg">
<path d="M7.49999 1.66602C6.45059 1.66707 5.44447 2.08442 4.70243 2.82646C3.96039 3.5685 3.54305 4.57461 3.54199 5.62402C3.54199 7.76602 5.21699 9.49902 7.39999 9.57402C7.46071 9.56568 7.52228 9.56568 7.58299 9.57402H7.64199C8.66637 9.53975 9.63726 9.10845 10.3494 8.3713C11.0615 7.63416 11.4591 6.64896 11.458 5.62402C11.4569 4.57461 11.0396 3.5685 10.2976 2.82646C9.55551 2.08442 8.54939 1.66707 7.49999 1.66602Z" fill="url(#paint0_radial_110_1602)"/>
<path d="M11.7328 11.7895C9.40781 10.2395 5.61681 10.2395 3.27481 11.7895C2.21681 12.4995 1.63281 13.4575 1.63281 14.4825C1.63281 15.5075 2.21681 16.4575 3.26681 17.1575C4.43281 17.9405 5.96681 18.3325 7.49981 18.3325C9.03281 18.3325 10.5668 17.9405 11.7328 17.1575C12.7828 16.4485 13.3668 15.4985 13.3668 14.4655C13.3578 13.4405 12.7828 12.4905 11.7328 11.7905V11.7895Z" fill="url(#paint1_radial_110_1602)"/>
<path d="M16.6578 6.11531C16.7264 6.88616 16.4926 7.65348 16.006 8.25523C15.5194 8.85698 14.8179 9.24606 14.0498 9.34031H14.0078C13.9578 9.34031 13.9078 9.34031 13.8668 9.35731C13.1011 9.40579 12.346 9.15803 11.7578 8.66531C12.1972 8.27032 12.5389 7.77863 12.7558 7.22903C12.9727 6.67943 13.059 6.08695 13.0078 5.49831C12.9507 4.8486 12.7302 4.2239 12.3668 3.68231C12.8035 3.46998 13.2852 3.36703 13.7705 3.38235C14.2559 3.39767 14.7302 3.53079 15.1526 3.77024C15.575 4.00969 15.9328 4.34828 16.1952 4.75681C16.4576 5.16535 16.6157 5.63158 16.6578 6.11531Z" fill="url(#paint2_radial_110_1602)"/>
<path d="M18.3252 13.8243C18.2582 14.6333 17.7412 15.3323 16.8752 15.8073C16.0412 16.2663 14.9922 16.4833 13.9502 16.4573C14.5502 15.9163 14.9002 15.2413 14.9672 14.5243C15.0502 13.4913 14.5582 12.4993 13.5752 11.7083C12.9962 11.2584 12.349 10.904 11.6582 10.6583C13.5002 10.1243 15.8172 10.4833 17.2412 11.6333C18.0082 12.2493 18.4002 13.0243 18.3252 13.8243Z" fill="url(#paint3_radial_110_1602)"/>
<defs>
<radialGradient id="paint0_radial_110_1602" cx="0" cy="0" r="1" gradientTransform="matrix(-6.80292 6.79604 -5.13787 -5.12766 10.7158 2.28371)" gradientUnits="userSpaceOnUse">
<stop stop-color="#86FFC6"/>
<stop offset="0.895" stop-color="#0A9150"/>
</radialGradient>
<radialGradient id="paint1_radial_110_1602" cx="0" cy="0" r="1" gradientTransform="matrix(-10.0841 6.62201 -7.61594 -4.99636 12.2667 11.2288)" gradientUnits="userSpaceOnUse">
<stop stop-color="#86FFC6"/>
<stop offset="0.895" stop-color="#0A9150"/>
</radialGradient>
<radialGradient id="paint2_radial_110_1602" cx="0" cy="0" r="1" gradientTransform="matrix(-4.22108 5.14122 -3.18795 -3.87909 16.209 3.84815)" gradientUnits="userSpaceOnUse">
<stop stop-color="#86FFC6"/>
<stop offset="0.895" stop-color="#0A9150"/>
</radialGradient>
<radialGradient id="paint3_radial_110_1602" cx="0" cy="0" r="1" gradientTransform="matrix(-5.73734 5.1936 -4.3331 -3.91861 17.7083 10.8881)" gradientUnits="userSpaceOnUse">
<stop stop-color="#86FFC6"/>
<stop offset="0.895" stop-color="#0A9150"/>
</radialGradient>
</defs>
</svg>
