<svg width="20" height="20" viewBox="0 0 20 20" fill="none" xmlns="http://www.w3.org/2000/svg">
<path d="M11.0423 9.99965C11.3186 9.99965 11.5836 9.88989 11.779 9.69451C11.9744 9.49913 12.0841 9.23414 12.0841 8.95783C12.0841 8.68153 11.9744 8.41654 11.779 8.22116C11.5836 8.02578 11.3186 7.91602 11.0423 7.91602C10.7714 7.92402 10.5144 8.03724 10.3256 8.23166C10.1368 8.42608 10.0312 8.6864 10.0312 8.95738C10.0312 9.22836 10.1368 9.48867 10.3256 9.68309C10.5144 9.87751 10.7714 9.99074 11.0423 9.99874V9.99965Z" fill="url(#paint0_radial_110_1616)"/>
<path d="M13.4915 1.66602H6.5079C3.47517 1.66602 1.66699 3.4742 1.66699 6.50692V13.4824C1.66699 16.5242 3.47517 18.3324 6.5079 18.3324H13.4834C16.517 18.3324 18.3252 16.5233 18.3252 13.4906V6.50692C18.3334 3.4742 16.5252 1.66602 13.4915 1.66602ZM13.2415 11.2242C12.8345 11.6296 12.3243 11.9161 11.7663 12.0526C11.2082 12.1891 10.6234 12.1705 10.0752 11.9987L9.19154 12.8742C9.15163 12.9102 9.09981 12.9301 9.04608 12.9301C8.99236 12.9301 8.94054 12.9102 8.90063 12.8742L8.09154 12.0651C8.0317 12.0089 7.95271 11.9776 7.87063 11.9776C7.78855 11.9776 7.70956 12.0089 7.64972 12.0651C7.52517 12.1824 7.53336 12.3824 7.64972 12.5069L8.45881 13.316C8.47839 13.3348 8.49396 13.3574 8.5046 13.3824C8.51524 13.4074 8.52072 13.4343 8.52072 13.4615C8.52072 13.4886 8.51524 13.5155 8.5046 13.5405C8.49396 13.5655 8.47839 13.5881 8.45881 13.6069L8.11608 13.9487C8.0342 14.026 7.93705 14.0852 7.8309 14.1226C7.72474 14.16 7.61193 14.1748 7.49972 14.166L6.59154 14.0406C6.29154 13.9987 6.01608 13.716 5.96608 13.4151L5.84154 12.5069C5.8079 12.3069 5.9079 12.0324 6.04154 11.8906L7.99972 9.93238C7.82962 9.38327 7.81271 8.79814 7.95081 8.24012C8.08891 7.68211 8.37678 7.1724 8.78336 6.76602C9.376 6.17756 10.1773 5.84732 11.0124 5.84732C11.8476 5.84732 12.6489 6.17756 13.2415 6.76602C13.5348 7.05846 13.7674 7.40589 13.9262 7.78839C14.0849 8.1709 14.1666 8.58097 14.1666 8.99511C14.1666 9.40924 14.0849 9.81931 13.9262 10.2018C13.7674 10.5843 13.5348 10.9318 13.2415 11.2242Z" fill="url(#paint1_radial_110_1616)"/>
<defs>
<radialGradient id="paint0_radial_110_1616" cx="0" cy="0" r="1" gradientTransform="matrix(-1.76421 1.79065 -1.33241 -1.35106 11.8916 8.07877)" gradientUnits="userSpaceOnUse">
<stop stop-color="#86FFC6"/>
<stop offset="0.895" stop-color="#0A9150"/>
</radialGradient>
<radialGradient id="paint1_radial_110_1616" cx="0" cy="0" r="1" gradientUnits="userSpaceOnUse" gradientTransform="translate(16.7634 2.96783) rotate(134.986) scale(20.2506 15.2867)">
<stop stop-color="#86FFC6"/>
<stop offset="0.895" stop-color="#0A9150"/>
</radialGradient>
</defs>
</svg>
