<svg width="8" height="8" viewBox="0 0 8 8" fill="none" xmlns="http://www.w3.org/2000/svg">
<path d="M1.1628 7.40114L6.21357 2.35038L6.1039 5.56412C6.10042 5.65531 6.11502 5.74506 6.14686 5.82819C6.17871 5.91132 6.22717 5.98618 6.28944 6.04846C6.35172 6.11073 6.42658 6.15919 6.50971 6.19103C6.59284 6.22288 6.68259 6.23748 6.77378 6.23399C6.95628 6.22722 7.13361 6.14853 7.26704 6.0151C7.40047 5.88166 7.47917 5.70433 7.48594 5.52184L7.62422 1.32656C7.63779 0.960733 7.50575 0.614357 7.25705 0.363404C7.00641 0.117676 6.66205 -0.0125455 6.29861 0.000957779L2.10334 0.139234C2.01257 0.142651 1.92214 0.163909 1.83722 0.201794C1.7523 0.239678 1.67455 0.293447 1.6084 0.36003C1.54226 0.426614 1.48902 0.504708 1.45172 0.589854C1.41441 0.675 1.39379 0.765531 1.39101 0.856276C1.38824 0.947022 1.40337 1.03621 1.43554 1.11874C1.46771 1.20127 1.51629 1.27553 1.57851 1.33728C1.64073 1.39903 1.71536 1.44706 1.79816 1.47863C1.88096 1.5102 1.97029 1.52469 2.06105 1.52127L5.27008 1.40689L0.219315 6.45765C0.0853603 6.59161 0.00659358 6.76978 0.000342355 6.95297C-0.00590819 7.13616 0.0608689 7.30936 0.185983 7.43447C0.311098 7.55959 0.4843 7.62636 0.667489 7.62011C0.850679 7.61386 1.02885 7.5351 1.1628 7.40114Z" fill="black"/>
</svg>
