<svg width="20" height="20" viewBox="0 0 20 20" fill="none" xmlns="http://www.w3.org/2000/svg">
<g clip-path="url(#clip0_110_4634)">
<path d="M5.51808 16.0876L13.8348 7.77093L13.6542 13.0628C13.6485 13.2129 13.6725 13.3607 13.725 13.4976C13.7774 13.6345 13.8572 13.7577 13.9597 13.8603C14.0623 13.9628 14.1855 14.0426 14.3224 14.0951C14.4593 14.1475 14.6071 14.1715 14.7573 14.1658C15.0578 14.1546 15.3498 14.0251 15.5695 13.8053C15.7892 13.5856 15.9188 13.2936 15.9299 12.9931L16.1576 6.08508C16.18 5.4827 15.9625 4.91235 15.553 4.49913C15.1403 4.09451 14.5733 3.88008 13.9748 3.90231L7.06678 4.13C6.91732 4.13563 6.76843 4.17063 6.62859 4.23301C6.48876 4.2954 6.36073 4.38393 6.25182 4.49357C6.1429 4.60321 6.05523 4.7318 5.99381 4.87201C5.93239 5.01221 5.89843 5.16128 5.89385 5.3107C5.88928 5.46013 5.9142 5.60698 5.96717 5.74288C6.02014 5.87877 6.10014 6.00105 6.20259 6.10273C6.30504 6.20441 6.42794 6.2835 6.56427 6.33548C6.70061 6.38746 6.8477 6.41132 6.99716 6.4057L12.2812 6.21736L3.96451 14.5341C3.74394 14.7546 3.61424 15.048 3.60394 15.3497C3.59365 15.6513 3.70361 15.9365 3.90962 16.1425C4.11564 16.3485 4.40084 16.4585 4.70248 16.4482C5.00413 16.4379 5.29751 16.3082 5.51808 16.0876Z" fill="white"/>
</g>
<defs>
<clipPath id="clip0_110_4634">
<rect width="20" height="20" fill="white"/>
</clipPath>
</defs>
</svg>
