<svg width="16" height="16" viewBox="0 0 16 16" fill="none" xmlns="http://www.w3.org/2000/svg">
<path d="M8.00001 12.6668C8.16329 12.6669 8.3209 12.7268 8.44292 12.8353C8.56494 12.9438 8.6429 13.0933 8.66201 13.2555L8.66667 13.3335V14.0002C8.66648 14.1701 8.60142 14.3335 8.48477 14.4571C8.36813 14.5806 8.2087 14.655 8.03908 14.6649C7.86945 14.6749 7.70242 14.6197 7.57212 14.5107C7.44181 14.4016 7.35807 14.2469 7.33801 14.0782L7.33334 14.0002V13.3335C7.33334 13.1567 7.40358 12.9871 7.5286 12.8621C7.65363 12.7371 7.82319 12.6668 8.00001 12.6668Z" fill="#EE8200"/>
<path d="M12.2087 11.2735L12.2713 11.3288L12.738 11.7955C12.8576 11.9155 12.927 12.0765 12.9322 12.2458C12.9373 12.4151 12.8779 12.58 12.7658 12.707C12.6538 12.8341 12.4976 12.9137 12.329 12.9298C12.1604 12.9458 11.992 12.8971 11.858 12.7935L11.7953 12.7382L11.3287 12.2715C11.2136 12.1567 11.1445 12.0037 11.1343 11.8415C11.1241 11.6793 11.1735 11.5189 11.2733 11.3906C11.3731 11.2622 11.5163 11.1747 11.676 11.1446C11.8357 11.1144 12.001 11.1437 12.1407 11.2268L12.2087 11.2735Z" fill="#EE8200"/>
<path d="M4.67134 11.3288C4.78612 11.4436 4.85507 11.5964 4.86526 11.7584C4.87545 11.9204 4.82617 12.0806 4.72667 12.2088L4.67134 12.2715L4.20467 12.7382C4.0847 12.8577 3.92371 12.9272 3.75441 12.9323C3.58511 12.9375 3.42019 12.878 3.29315 12.766C3.16611 12.654 3.08647 12.4978 3.0704 12.3292C3.05434 12.1606 3.10306 11.9922 3.20667 11.8582L3.262 11.7955L3.72867 11.3288C3.85369 11.2039 4.02323 11.1336 4.2 11.1336C4.37678 11.1336 4.54632 11.2039 4.67134 11.3288Z" fill="#EE8200"/>
<path d="M2.66667 7.3335C2.83659 7.33368 3.00003 7.39875 3.12358 7.5154C3.24714 7.63204 3.32149 7.79147 3.33145 7.96109C3.34141 8.13072 3.28622 8.29775 3.17716 8.42805C3.0681 8.55835 2.9134 8.64209 2.74467 8.66216L2.66667 8.66683H2C1.83008 8.66664 1.66665 8.60158 1.54309 8.48493C1.41953 8.36828 1.34518 8.20886 1.33522 8.03923C1.32526 7.86961 1.38045 7.70258 1.48951 7.57227C1.59857 7.44197 1.75327 7.35823 1.922 7.33816L2 7.3335H2.66667Z" fill="#EE8200"/>
<path d="M14 7.3335C14.1699 7.33368 14.3334 7.39875 14.4569 7.5154C14.5805 7.63204 14.6548 7.79147 14.6648 7.96109C14.6747 8.13072 14.6196 8.29775 14.5105 8.42805C14.4014 8.55835 14.2467 8.64209 14.078 8.66216L14 8.66683H13.3333C13.1634 8.66664 13 8.60158 12.8764 8.48493C12.7529 8.36828 12.6785 8.20886 12.6686 8.03923C12.6586 7.86961 12.7138 7.70258 12.8228 7.57227C12.9319 7.44197 13.0866 7.35823 13.2553 7.33816L13.3333 7.3335H14Z" fill="#EE8200"/>
<path d="M4.142 3.20683L4.20467 3.26217L4.67134 3.72883C4.7909 3.8488 4.86032 4.00979 4.86549 4.17909C4.87066 4.34839 4.81119 4.51331 4.69917 4.64035C4.58715 4.7674 4.43097 4.84704 4.26235 4.8631C4.09374 4.87916 3.92533 4.83044 3.79134 4.72683L3.72867 4.6715L3.262 4.20483C3.1474 4.08995 3.07862 3.93722 3.06858 3.77525C3.05854 3.61329 3.10791 3.45323 3.20744 3.32507C3.30698 3.19691 3.44984 3.10945 3.60925 3.07909C3.76866 3.04874 3.93366 3.07756 4.07334 3.16017L4.142 3.20683Z" fill="#EE8200"/>
<path d="M12.738 3.26217C12.8528 3.37696 12.9217 3.5297 12.9319 3.69171C12.9421 3.85373 12.8928 4.0139 12.7933 4.14217L12.738 4.20483L12.2713 4.6715C12.1514 4.79107 11.9904 4.86048 11.8211 4.86565C11.6518 4.87082 11.4869 4.81136 11.3598 4.69933C11.2328 4.58731 11.1531 4.43113 11.1371 4.26252C11.121 4.0939 11.1697 3.92549 11.2733 3.7915L11.3287 3.72883L11.7953 3.26217C11.9204 3.13719 12.0899 3.06698 12.2667 3.06698C12.4435 3.06698 12.613 3.13719 12.738 3.26217Z" fill="#EE8200"/>
<path d="M8.00001 1.3335C8.16329 1.33352 8.3209 1.39347 8.44292 1.50197C8.56494 1.61048 8.6429 1.76 8.66201 1.92216L8.66667 2.00016V2.66683C8.66648 2.83675 8.60142 3.00018 8.48477 3.12374C8.36813 3.2473 8.2087 3.32165 8.03908 3.33161C7.86945 3.34157 7.70242 3.28638 7.57212 3.17732C7.44181 3.06826 7.35807 2.91356 7.33801 2.74483L7.33334 2.66683V2.00016C7.33334 1.82335 7.40358 1.65378 7.5286 1.52876C7.65363 1.40373 7.82319 1.3335 8.00001 1.3335Z" fill="#EE8200"/>
<path d="M8.00001 4.66683C8.65312 4.66679 9.29186 4.85862 9.83689 5.2185C10.3819 5.57837 10.8092 6.09043 11.0657 6.69107C11.3222 7.29171 11.3966 7.95447 11.2797 8.59704C11.1627 9.2396 10.8596 9.83365 10.4079 10.3054C9.95621 10.7772 9.3759 11.1058 8.73903 11.2506C8.10215 11.3953 7.43678 11.3498 6.82556 11.1197C6.21434 10.8895 5.6842 10.4849 5.30098 9.95601C4.91776 9.42713 4.69835 8.79733 4.67001 8.14483L4.66667 8.00016L4.67001 7.8555C4.70728 6.99733 5.07441 6.18668 5.69482 5.5926C6.31523 4.99852 7.14103 4.66688 8.00001 4.66683Z" fill="#EE8200"/>
</svg>
