<svg width="18" height="18" viewBox="0 0 18 18" fill="none" xmlns="http://www.w3.org/2000/svg">
<path d="M6.93275 1.44444C6.4223 1.87944 5.78764 2.14233 5.1191 2.19568C3.55902 2.32018 2.32018 3.55902 2.19568 5.1191C2.14233 5.78764 1.87944 6.4223 1.44444 6.93275C0.429326 8.12393 0.429326 9.87591 1.44444 11.0671C1.87944 11.5775 2.14233 12.2122 2.19568 12.8807C2.32018 14.4408 3.55902 15.6797 5.1191 15.8042C5.78764 15.8575 6.4223 16.1204 6.93275 16.5554C8.12393 17.5705 9.87591 17.5705 11.0671 16.5554C11.5775 16.1204 12.2122 15.8575 12.8807 15.8042C14.4408 15.6797 15.6797 14.4408 15.8042 12.8807C15.8575 12.2122 16.1204 11.5775 16.5554 11.0671C17.5705 9.87591 17.5705 8.12393 16.5554 6.93275C16.1204 6.4223 15.8575 5.78764 15.8042 5.1191C15.6797 3.55902 14.4408 2.32018 12.8807 2.19568C12.2122 2.14233 11.5775 1.87944 11.0671 1.44444C9.87591 0.429326 8.12393 0.429326 6.93275 1.44444Z" fill="#058C4C"/>
<path d="M6.50488 8.99992L8.16824 10.6633L11.9108 6.92072M5.1191 2.19568C5.78764 2.14233 6.4223 1.87944 6.93275 1.44444C8.12393 0.429326 9.87591 0.429326 11.0671 1.44444C11.5775 1.87944 12.2122 2.14233 12.8807 2.19568C14.4408 2.32018 15.6797 3.55902 15.8042 5.1191C15.8575 5.78764 16.1204 6.4223 16.5554 6.93275C17.5705 8.12393 17.5705 9.87591 16.5554 11.0671C16.1204 11.5775 15.8575 12.2122 15.8042 12.8807C15.6797 14.4408 14.4408 15.6797 12.8807 15.8042C12.2122 15.8575 11.5775 16.1204 11.0671 16.5554C9.87591 17.5705 8.12393 17.5705 6.93275 16.5554C6.4223 16.1204 5.78764 15.8575 5.1191 15.8042C3.55902 15.6797 2.32018 14.4408 2.19568 12.8807C2.14233 12.2122 1.87944 11.5775 1.44444 11.0671C0.429326 9.87591 0.429326 8.12393 1.44444 6.93275C1.87944 6.4223 2.14233 5.78764 2.19568 5.1191C2.32018 3.55902 3.55902 2.32018 5.1191 2.19568Z" stroke="#EEEEEE" stroke-width="1.66336" stroke-linecap="round" stroke-linejoin="round"/>
</svg>
