<svg width="15" height="13" viewBox="0 0 15 13" fill="none" xmlns="http://www.w3.org/2000/svg">
<path d="M4.5 3.16667H10.3333C11.7378 3.16667 12.44 3.16667 12.9445 3.50373C13.1629 3.64965 13.3503 3.83715 13.4963 4.05553C13.8333 4.55997 13.8333 5.2622 13.8333 6.66667C13.8333 9.00747 13.8333 10.1778 13.2715 11.0186C13.0284 11.3825 12.7159 11.6951 12.3519 11.9382C11.5111 12.5 10.3408 12.5 8 12.5H7.16667C4.02397 12.5 2.45262 12.5 1.47631 11.5237C0.5 10.5474 0.5 8.976 0.5 5.83333L0.5 3.79618C0.5 2.5852 0.5 1.97971 0.753547 1.52537C0.93428 1.20151 1.20151 0.93428 1.52537 0.753547C1.97971 0.5 2.5852 0.5 3.79618 0.5C4.57201 0.5 4.95993 0.5 5.29951 0.62734C6.0748 0.91808 6.39453 1.62239 6.7444 2.32209L7.16667 3.16667" stroke="#141B34" stroke-linecap="round"/>
</svg>
