<svg width="16" height="16" viewBox="0 0 16 16" fill="none" xmlns="http://www.w3.org/2000/svg">
<path d="M6.66699 8.81868C6.76139 8.97328 6.87346 9.11962 7.00313 9.25455C7.80813 10.0923 9.03513 10.2233 9.97206 9.64748C10.1457 9.54075 10.3093 9.40982 10.4585 9.25455L12.6181 7.00695C13.5722 6.01391 13.5722 4.40386 12.6181 3.4108C11.6639 2.41775 10.1169 2.41776 9.16266 3.4108L8.68699 3.90587" stroke="#141B34" stroke-linecap="round"/>
<path d="M7.31386 12.0933L6.83799 12.5885C5.88383 13.5816 4.3368 13.5816 3.38263 12.5885C2.42845 11.5955 2.42845 9.98546 3.38263 8.9924L5.54224 6.7448C6.49641 5.75174 8.04346 5.75173 8.99759 6.7448C9.12726 6.87966 9.23926 7.026 9.33366 7.18053" stroke="#141B34" stroke-linecap="round"/>
<path d="M14.0003 10.666H12.6144M10.667 13.9993V12.6134" stroke="#141B34" stroke-linecap="round" stroke-linejoin="round"/>
<path d="M2.00006 5.33333H3.38599M5.33339 2V3.38593" stroke="#141B34" stroke-linecap="round" stroke-linejoin="round"/>
</svg>
