<svg width="20" height="20" viewBox="0 0 20 20" fill="none" xmlns="http://www.w3.org/2000/svg">
<g filter="url(#filter0_d_1_9277)">
<path d="M9.5957 17.6016C14.014 17.6016 17.5957 14.0198 17.5957 9.60156C17.5957 5.18328 14.014 1.60156 9.5957 1.60156C5.17743 1.60156 1.5957 5.18328 1.5957 9.60156C1.5957 14.0198 5.17743 17.6016 9.5957 17.6016Z" stroke="white" stroke-width="1.2"/>
<path d="M17.5969 10.61C16.8554 10.4709 16.0929 10.3984 15.3146 10.3984C11.0327 10.3984 7.22435 12.5924 4.79688 15.9984" stroke="white" stroke-width="1.2" stroke-linejoin="round"/>
<path d="M15.1957 4C12.6921 6.93394 8.93002 8.8 4.7234 8.8C3.6472 8.8 2.60009 8.67784 1.5957 8.44696" stroke="white" stroke-width="1.2" stroke-linejoin="round"/>
<path d="M11.6899 17.6004C11.8904 16.6292 11.9957 15.6234 11.9957 14.593C11.9957 9.54015 9.46314 5.07755 5.5957 2.40039" stroke="white" stroke-width="1.2" stroke-linejoin="round"/>
</g>
<defs>
<filter id="filter0_d_1_9277" x="-0.8" y="0" width="20.8" height="20.8002" filterUnits="userSpaceOnUse" color-interpolation-filters="sRGB">
<feFlood flood-opacity="0" result="BackgroundImageFix"/>
<feColorMatrix in="SourceAlpha" type="matrix" values="0 0 0 0 0 0 0 0 0 0 0 0 0 0 0 0 0 0 127 0" result="hardAlpha"/>
<feOffset dy="0.8"/>
<feGaussianBlur stdDeviation="0.4"/>
<feComposite in2="hardAlpha" operator="out"/>
<feColorMatrix type="matrix" values="0 0 0 0 0 0 0 0 0 0 0 0 0 0 0 0 0 0 0.04 0"/>
<feBlend mode="normal" in2="BackgroundImageFix" result="effect1_dropShadow_1_9277"/>
<feBlend mode="normal" in="SourceGraphic" in2="effect1_dropShadow_1_9277" result="shape"/>
</filter>
</defs>
</svg>
