<svg width="20" height="20" viewBox="0 0 20 20" fill="none" xmlns="http://www.w3.org/2000/svg">
<g filter="url(#filter0_d_1_9269)">
<path d="M3.5957 7.60059H3.1957C2.44146 7.60059 2.06434 7.60059 1.83002 7.8349C1.5957 8.06923 1.5957 8.44635 1.5957 9.20059V16.0006C1.5957 16.7548 1.5957 17.1319 1.83002 17.3663C2.06434 17.6006 2.44146 17.6006 3.1957 17.6006H3.5957C4.34995 17.6006 4.72707 17.6006 4.96139 17.3663C5.1957 17.1319 5.1957 16.7548 5.1957 16.0006V9.20059C5.1957 8.44635 5.1957 8.06923 4.96139 7.8349C4.72707 7.60059 4.34995 7.60059 3.5957 7.60059Z" stroke="white" stroke-width="1.2"/>
<path d="M5.1957 3.40156C5.1957 4.39567 4.38981 5.20156 3.3957 5.20156C2.40159 5.20156 1.5957 4.39567 1.5957 3.40156C1.5957 2.40745 2.40159 1.60156 3.3957 1.60156C4.38981 1.60156 5.1957 2.40745 5.1957 3.40156Z" stroke="white" stroke-width="1.2"/>
<path d="M9.85846 7.60059H9.19766C8.44342 7.60059 8.0663 7.60059 7.83197 7.8349C7.59766 8.06923 7.59766 8.44635 7.59766 9.20059V16.0006C7.59766 16.7548 7.59766 17.1319 7.83197 17.3663C8.0663 17.6006 8.44342 17.6006 9.19766 17.6006H9.59766C10.3519 17.6006 10.729 17.6006 10.9633 17.3663C11.1977 17.1319 11.1977 16.7548 11.1977 16.0006L11.1977 13.2007C11.1977 11.8752 11.6201 10.8007 12.868 10.8007C13.4918 10.8007 13.9977 11.3379 13.9977 12.0007V15.6007C13.9977 16.3549 13.9977 16.732 14.232 16.9663C14.4662 17.2007 14.8434 17.2007 15.5977 17.2007H15.9966C16.7507 17.2007 17.1277 17.2007 17.3621 16.9664C17.5964 16.7322 17.5965 16.3551 17.5966 15.6011L17.5977 11.2007C17.5977 9.21259 15.7068 7.60078 13.8351 7.60078C12.7696 7.60078 11.819 8.12307 11.1977 8.93979C11.1977 8.43571 11.1977 8.18371 11.0882 7.99659C11.0189 7.87807 10.9201 7.77941 10.8017 7.71008C10.6145 7.60059 10.3625 7.60059 9.85846 7.60059Z" stroke="white" stroke-width="1.2" stroke-linejoin="round"/>
</g>
<defs>
<filter id="filter0_d_1_9269" x="-0.8" y="0" width="20.8" height="20.8002" filterUnits="userSpaceOnUse" color-interpolation-filters="sRGB">
<feFlood flood-opacity="0" result="BackgroundImageFix"/>
<feColorMatrix in="SourceAlpha" type="matrix" values="0 0 0 0 0 0 0 0 0 0 0 0 0 0 0 0 0 0 127 0" result="hardAlpha"/>
<feOffset dy="0.8"/>
<feGaussianBlur stdDeviation="0.4"/>
<feComposite in2="hardAlpha" operator="out"/>
<feColorMatrix type="matrix" values="0 0 0 0 0 0 0 0 0 0 0 0 0 0 0 0 0 0 0.04 0"/>
<feBlend mode="normal" in2="BackgroundImageFix" result="effect1_dropShadow_1_9269"/>
<feBlend mode="normal" in="SourceGraphic" in2="effect1_dropShadow_1_9269" result="shape"/>
</filter>
</defs>
</svg>
