<svg width="20" height="20" viewBox="0 0 20 20" fill="none" xmlns="http://www.w3.org/2000/svg">
<g filter="url(#filter0_d_1_9283)">
<path d="M9.60352 17.6016C14.0218 17.6016 17.6035 14.0198 17.6035 9.60156C17.6035 5.18328 14.0218 1.60156 9.60352 1.60156C5.18524 1.60156 1.60352 5.18328 1.60352 9.60156C1.60352 10.7047 1.82677 11.7556 2.23057 12.7117C2.45374 13.24 2.56532 13.5043 2.57914 13.704C2.59296 13.9036 2.53419 14.1232 2.41665 14.5625L1.60352 17.6016L4.64253 16.7884C5.08182 16.6709 5.30147 16.6121 5.50113 16.626C5.7008 16.6397 5.965 16.7513 6.4934 16.9745C7.44948 17.3783 8.5004 17.6016 9.60352 17.6016Z" stroke="white" stroke-width="1.2" stroke-linejoin="round"/>
<path d="M6.87208 9.9034L7.56883 9.03804C7.86249 8.67332 8.22548 8.3338 8.25396 7.84817C8.26108 7.72551 8.17484 7.17482 8.0022 6.07345C7.93437 5.64061 7.53025 5.60156 7.18022 5.60156C6.72407 5.60156 6.496 5.60156 6.26952 5.70501C5.98327 5.83576 5.68939 6.20341 5.6249 6.51143C5.57387 6.75513 5.61179 6.92306 5.68763 7.25891C6.00975 8.6854 6.76541 10.0942 7.93715 11.266C9.10892 12.4377 10.5177 13.1934 11.9442 13.5155C12.28 13.5913 12.448 13.6292 12.6917 13.5782C12.9997 13.5137 13.3673 13.2199 13.4981 12.9336C13.6016 12.7071 13.6016 12.4791 13.6016 12.0229C13.6016 11.6728 13.5625 11.2688 13.1296 11.2009C12.0283 11.0283 11.4776 10.942 11.3549 10.9492C10.8693 10.9776 10.5298 11.3406 10.1651 11.6343L9.29972 12.331" stroke="white" stroke-width="1.2"/>
</g>
<defs>
<filter id="filter0_d_1_9283" x="-0.8" y="0" width="20.8" height="20.8002" filterUnits="userSpaceOnUse" color-interpolation-filters="sRGB">
<feFlood flood-opacity="0" result="BackgroundImageFix"/>
<feColorMatrix in="SourceAlpha" type="matrix" values="0 0 0 0 0 0 0 0 0 0 0 0 0 0 0 0 0 0 127 0" result="hardAlpha"/>
<feOffset dy="0.8"/>
<feGaussianBlur stdDeviation="0.4"/>
<feComposite in2="hardAlpha" operator="out"/>
<feColorMatrix type="matrix" values="0 0 0 0 0 0 0 0 0 0 0 0 0 0 0 0 0 0 0.04 0"/>
<feBlend mode="normal" in2="BackgroundImageFix" result="effect1_dropShadow_1_9283"/>
<feBlend mode="normal" in="SourceGraphic" in2="effect1_dropShadow_1_9283" result="shape"/>
</filter>
</defs>
</svg>
