<svg width="20" height="20" viewBox="0 0 20 20" fill="none" xmlns="http://www.w3.org/2000/svg">
<path d="M9.59961 16.3998C11.0474 16.3998 12.4357 16.2568 13.7223 15.9945C15.3294 15.6669 16.1331 15.5031 16.8663 14.5603C17.5996 13.6175 17.5996 12.5352 17.5996 10.3706V8.829C17.5996 6.66439 17.5996 5.5821 16.8663 4.6393C16.1331 3.69651 15.3294 3.53271 13.7223 3.2051C12.4357 2.94282 11.0474 2.7998 9.59961 2.7998C8.15185 2.7998 6.76352 2.94282 5.47686 3.2051C3.86974 3.53271 3.06618 3.69651 2.33289 4.6393C1.59961 5.5821 1.59961 6.66439 1.59961 8.829V10.3706C1.59961 12.5352 1.59961 13.6175 2.33289 14.5603C3.06618 15.5031 3.86974 15.6669 5.47686 15.9945C6.76352 16.2568 8.15185 16.3998 9.59961 16.3998Z" stroke="white" stroke-width="1.2"/>
<path d="M12.7689 9.85012C12.6502 10.3348 12.0185 10.6828 10.7551 11.3791C9.38098 12.1362 8.69394 12.5148 8.13746 12.369C7.94898 12.3196 7.77538 12.2327 7.62961 12.1148C7.19922 11.7669 7.19922 11.0445 7.19922 9.5998C7.19922 8.15508 7.19922 7.4327 7.62961 7.08475C7.77538 6.96689 7.94898 6.88004 8.13746 6.83064C8.69394 6.68477 9.38098 7.06336 10.7551 7.82055C12.0185 8.51676 12.6502 8.86484 12.7689 9.34948C12.8093 9.51444 12.8093 9.68516 12.7689 9.85012Z" stroke="white" stroke-width="1.2" stroke-linejoin="round"/>
</svg>
